<mxfile host="app.diagrams.net" modified="2022-03-15T03:59:16.237Z" agent="5.0 (Macintosh; Intel Mac OS X 10_15_7) AppleWebKit/537.36 (KHTML, like Gecko) Chrome/99.0.4844.51 Safari/537.36" etag="BEREU7yeAgAZHHr7roEJ" version="17.1.0" type="github">
  <diagram id="wFE0QG_FPsp0jaGvCLVb" name="Page-1">
    <mxGraphModel dx="1067" dy="681" grid="1" gridSize="10" guides="1" tooltips="1" connect="1" arrows="1" fold="1" page="1" pageScale="1" pageWidth="850" pageHeight="1100" math="0" shadow="0">
      <root>
        <mxCell id="0" />
        <mxCell id="1" parent="0" />
        <mxCell id="Es_Tln71gu4uyhZNHYvM-2" value="UI&lt;br&gt;层" style="rounded=1;whiteSpace=wrap;html=1;fillColor=#d5e8d4;strokeColor=#82b366;" vertex="1" parent="1">
          <mxGeometry x="120" y="70" width="60" height="140" as="geometry" />
        </mxCell>
        <mxCell id="Es_Tln71gu4uyhZNHYvM-3" value="应&lt;br&gt;用&lt;br&gt;层" style="rounded=1;whiteSpace=wrap;html=1;fillColor=#e1d5e7;strokeColor=#9673a6;" vertex="1" parent="1">
          <mxGeometry x="120" y="240" width="60" height="140" as="geometry" />
        </mxCell>
        <mxCell id="Es_Tln71gu4uyhZNHYvM-4" value="数&lt;br&gt;据&lt;br&gt;层" style="rounded=1;whiteSpace=wrap;html=1;fillColor=#dae8fc;strokeColor=#6c8ebf;" vertex="1" parent="1">
          <mxGeometry x="120" y="410" width="60" height="80" as="geometry" />
        </mxCell>
        <mxCell id="Es_Tln71gu4uyhZNHYvM-5" value="" style="rounded=1;whiteSpace=wrap;html=1;fillColor=#d5e8d4;strokeColor=#82b366;" vertex="1" parent="1">
          <mxGeometry x="220" y="70" width="510" height="140" as="geometry" />
        </mxCell>
        <mxCell id="Es_Tln71gu4uyhZNHYvM-6" value="" style="rounded=1;whiteSpace=wrap;html=1;fillColor=#e1d5e7;strokeColor=#9673a6;" vertex="1" parent="1">
          <mxGeometry x="230" y="240" width="510" height="140" as="geometry" />
        </mxCell>
        <mxCell id="Es_Tln71gu4uyhZNHYvM-7" value="" style="rounded=1;whiteSpace=wrap;html=1;fillColor=#dae8fc;strokeColor=#6c8ebf;" vertex="1" parent="1">
          <mxGeometry x="230" y="410" width="510" height="80" as="geometry" />
        </mxCell>
        <mxCell id="Es_Tln71gu4uyhZNHYvM-10" value="" style="line;strokeWidth=2;html=1;dashed=1;" vertex="1" parent="1">
          <mxGeometry x="120" y="220" width="610" height="10" as="geometry" />
        </mxCell>
        <mxCell id="Es_Tln71gu4uyhZNHYvM-11" value="" style="line;strokeWidth=2;html=1;dashed=1;" vertex="1" parent="1">
          <mxGeometry x="120" y="390" width="620" height="10" as="geometry" />
        </mxCell>
        <mxCell id="Es_Tln71gu4uyhZNHYvM-14" value="数据大盘" style="rounded=1;whiteSpace=wrap;html=1;dashed=1;" vertex="1" parent="1">
          <mxGeometry x="250" y="80" width="120" height="50" as="geometry" />
        </mxCell>
        <mxCell id="Es_Tln71gu4uyhZNHYvM-15" value="项目创建" style="rounded=1;whiteSpace=wrap;html=1;dashed=1;" vertex="1" parent="1">
          <mxGeometry x="410" y="80" width="120" height="50" as="geometry" />
        </mxCell>
        <mxCell id="Es_Tln71gu4uyhZNHYvM-16" value="用例创建" style="rounded=1;whiteSpace=wrap;html=1;dashed=1;" vertex="1" parent="1">
          <mxGeometry x="570" y="80" width="120" height="50" as="geometry" />
        </mxCell>
        <mxCell id="Es_Tln71gu4uyhZNHYvM-18" value="任务创建" style="rounded=1;whiteSpace=wrap;html=1;dashed=1;" vertex="1" parent="1">
          <mxGeometry x="250" y="150" width="120" height="50" as="geometry" />
        </mxCell>
        <mxCell id="Es_Tln71gu4uyhZNHYvM-19" value="执行日志" style="rounded=1;whiteSpace=wrap;html=1;dashed=1;" vertex="1" parent="1">
          <mxGeometry x="410" y="150" width="120" height="50" as="geometry" />
        </mxCell>
        <mxCell id="Es_Tln71gu4uyhZNHYvM-20" value="组件创建" style="rounded=1;whiteSpace=wrap;html=1;dashed=1;" vertex="1" parent="1">
          <mxGeometry x="570" y="150" width="120" height="50" as="geometry" />
        </mxCell>
        <mxCell id="Es_Tln71gu4uyhZNHYvM-21" value="权限服务" style="rounded=1;whiteSpace=wrap;html=1;dashed=1;" vertex="1" parent="1">
          <mxGeometry x="570" y="320" width="120" height="50" as="geometry" />
        </mxCell>
        <mxCell id="Es_Tln71gu4uyhZNHYvM-22" value="消息服务" style="rounded=1;whiteSpace=wrap;html=1;dashed=1;" vertex="1" parent="1">
          <mxGeometry x="250" y="320" width="120" height="50" as="geometry" />
        </mxCell>
        <mxCell id="Es_Tln71gu4uyhZNHYvM-23" value="日志服务" style="rounded=1;whiteSpace=wrap;html=1;dashed=1;" vertex="1" parent="1">
          <mxGeometry x="410" y="320" width="120" height="50" as="geometry" />
        </mxCell>
        <mxCell id="Es_Tln71gu4uyhZNHYvM-24" value="任务模块" style="rounded=1;whiteSpace=wrap;html=1;dashed=1;" vertex="1" parent="1">
          <mxGeometry x="250" y="250" width="120" height="50" as="geometry" />
        </mxCell>
        <mxCell id="Es_Tln71gu4uyhZNHYvM-26" value="puputeer核心模块" style="rounded=1;whiteSpace=wrap;html=1;dashed=1;" vertex="1" parent="1">
          <mxGeometry x="410" y="250" width="120" height="50" as="geometry" />
        </mxCell>
        <mxCell id="Es_Tln71gu4uyhZNHYvM-27" value="进程服务" style="rounded=1;whiteSpace=wrap;html=1;dashed=1;" vertex="1" parent="1">
          <mxGeometry x="570" y="250" width="120" height="50" as="geometry" />
        </mxCell>
        <mxCell id="Es_Tln71gu4uyhZNHYvM-28" value="平台数据" style="rounded=1;whiteSpace=wrap;html=1;dashed=1;" vertex="1" parent="1">
          <mxGeometry x="250" y="425" width="120" height="50" as="geometry" />
        </mxCell>
        <mxCell id="Es_Tln71gu4uyhZNHYvM-29" value="执行数据" style="rounded=1;whiteSpace=wrap;html=1;dashed=1;" vertex="1" parent="1">
          <mxGeometry x="410" y="425" width="120" height="50" as="geometry" />
        </mxCell>
        <mxCell id="Es_Tln71gu4uyhZNHYvM-30" value="监控数据" style="rounded=1;whiteSpace=wrap;html=1;dashed=1;" vertex="1" parent="1">
          <mxGeometry x="570" y="425" width="120" height="50" as="geometry" />
        </mxCell>
      </root>
    </mxGraphModel>
  </diagram>
</mxfile>
